<svg width="39" height="38" viewBox="0 0 39 38" fill="none" xmlns="http://www.w3.org/2000/svg">
<path d="M18.9167 24.7292H20.1667V20.4792L21.8958 22.2084L22.7708 21.3334L19.5 18.1667L16.2708 21.3751L17.1458 22.2501L18.9167 20.4792V24.7292ZM14.1875 27.6251C13.7431 27.6251 13.3576 27.4619 13.0313 27.1355C12.7049 26.8091 12.5417 26.4237 12.5417 25.9792V12.0209C12.5417 11.5626 12.7049 11.1702 13.0313 10.8438C13.3576 10.5174 13.7431 10.3542 14.1875 10.3542H21.7292L26.4792 15.1042V25.9792C26.4792 26.4237 26.316 26.8091 25.9896 27.1355C25.6632 27.4619 25.2708 27.6251 24.8125 27.6251H14.1875ZM20.875 15.8959V12.0209H14.1875V25.9792H24.8125V15.8959H20.875ZM14.1875 12.0209V15.8959V12.0209V25.9792V12.0209Z" fill="#0064AF"/>
<rect x="1" y="0.5" width="37" height="37" rx="18.5" stroke="#0064AF"/>
</svg>
