<svg width="55" height="54" viewBox="0 0 55 54" fill="none" xmlns="http://www.w3.org/2000/svg">
<g filter="url(#filter0_d_910_37550)">
<rect x="8.5" y="6" width="38" height="38" rx="19" fill="#0064AF" shape-rendering="crispEdges"/>
<path d="M27.5 29.3333C27.7917 29.3333 28.0314 29.2394 28.2192 29.0516C28.4064 28.8644 28.5 28.6249 28.5 28.3333V25.1458C28.5 24.868 28.4064 24.6352 28.2192 24.4474C28.0314 24.2602 27.7917 24.1666 27.5 24.1666C27.2083 24.1666 26.9689 24.2638 26.7817 24.4583C26.5939 24.6527 26.5 24.8888 26.5 25.1666V28.3541C26.5 28.6319 26.5939 28.8644 26.7817 29.0516C26.9689 29.2394 27.2083 29.3333 27.5 29.3333ZM27.5 22.7291C27.8056 22.7291 28.0592 22.6283 28.2608 22.4266C28.4619 22.2255 28.5625 21.9721 28.5625 21.6666C28.5625 21.361 28.4619 21.1074 28.2608 20.9058C28.0592 20.7046 27.8056 20.6041 27.5 20.6041C27.1944 20.6041 26.9411 20.7046 26.74 20.9058C26.5383 21.1074 26.4375 21.361 26.4375 21.6666C26.4375 21.9721 26.5383 22.2255 26.74 22.4266C26.9411 22.6283 27.1944 22.7291 27.5 22.7291ZM27.5 33.7291C26.2778 33.7291 25.1389 33.4999 24.0833 33.0416C23.0278 32.5833 22.1078 31.9619 21.3233 31.1774C20.5383 30.3924 19.9167 29.4721 19.4583 28.4166C19 27.361 18.7708 26.2221 18.7708 24.9999C18.7708 23.7777 19 22.6388 19.4583 21.5833C19.9167 20.5277 20.5383 19.6074 21.3233 18.8224C22.1078 18.038 23.0278 17.4166 24.0833 16.9583C25.1389 16.4999 26.2778 16.2708 27.5 16.2708C28.7222 16.2708 29.8611 16.4999 30.9167 16.9583C31.9722 17.4166 32.8925 18.038 33.6775 18.8224C34.4619 19.6074 35.0833 20.5277 35.5417 21.5833C36 22.6388 36.2292 23.7777 36.2292 24.9999C36.2292 26.2221 36 27.361 35.5417 28.4166C35.0833 29.4721 34.4619 30.3924 33.6775 31.1774C32.8925 31.9619 31.9722 32.5833 30.9167 33.0416C29.8611 33.4999 28.7222 33.7291 27.5 33.7291ZM27.5 31.5208C29.3056 31.5208 30.8439 30.8888 32.115 29.6249C33.3856 28.361 34.0208 26.8194 34.0208 24.9999C34.0208 23.1805 33.3856 21.6388 32.115 20.3749C30.8439 19.111 29.3056 18.4791 27.5 18.4791C25.6944 18.4791 24.1564 19.111 22.8858 20.3749C21.6147 21.6388 20.9792 23.1805 20.9792 24.9999C20.9792 26.8194 21.6147 28.361 22.8858 29.6249C24.1564 30.8888 25.6944 31.5208 27.5 31.5208Z" fill="white"/>
</g>
<defs>
<filter id="filter0_d_910_37550" x="0.5" y="0" width="54" height="54" filterUnits="userSpaceOnUse" color-interpolation-filters="sRGB">
<feFlood flood-opacity="0" result="BackgroundImageFix"/>
<feColorMatrix in="SourceAlpha" type="matrix" values="0 0 0 0 0 0 0 0 0 0 0 0 0 0 0 0 0 0 127 0" result="hardAlpha"/>
<feOffset dy="2"/>
<feGaussianBlur stdDeviation="4"/>
<feComposite in2="hardAlpha" operator="out"/>
<feColorMatrix type="matrix" values="0 0 0 0 0 0 0 0 0 0 0 0 0 0 0 0 0 0 0.1 0"/>
<feBlend mode="normal" in2="BackgroundImageFix" result="effect1_dropShadow_910_37550"/>
<feBlend mode="normal" in="SourceGraphic" in2="effect1_dropShadow_910_37550" result="shape"/>
</filter>
</defs>
</svg>
