<svg width="39" height="38" viewBox="0 0 39 38" fill="none" xmlns="http://www.w3.org/2000/svg">
<path d="M11.4792 10.9792H18.9375V18.4376H11.4792V10.9792ZM13.125 12.6042V16.3126V12.6042ZM20.0625 10.9792H27.5208V18.4376H20.0625V10.9792ZM22.1875 12.6042V16.3126V12.6042ZM11.4792 19.5626H18.9375V27.0209H11.4792V19.5626ZM13.125 21.6459V25.3751V21.6459ZM22.9583 19.5626H24.625V22.4584H27.5208V24.1251H24.625V27.0209H22.9583V24.1251H20.0625V22.4584H22.9583V19.5626ZM21.7083 12.6251V16.7917H25.875V12.6251H21.7083ZM13.125 12.6251V16.7917H17.2917V12.6251H13.125ZM13.125 21.2084V25.3751H17.2917V21.2084H13.125Z" fill="#0064AF"/>
<rect x="1" y="0.5" width="37" height="37" rx="18.5" stroke="#0064AF"/>
</svg>
