<svg width="39" height="38" viewBox="0 0 39 38" fill="none" xmlns="http://www.w3.org/2000/svg">
<path d="M19.2917 26.7083V24.9375L23.8542 20.375L25.625 22.1458L21.0625 26.7083H19.2917ZM11.7917 22.4583V20.7917H18.5833V22.4583H11.7917ZM26.5208 21.25L24.75 19.4792L25.3542 18.875C25.5069 18.7222 25.7014 18.6458 25.9375 18.6458C26.1736 18.6458 26.3681 18.7222 26.5208 18.875L27.125 19.4792C27.2778 19.6319 27.3542 19.8264 27.3542 20.0625C27.3542 20.2986 27.2778 20.4931 27.125 20.6458L26.5208 21.25ZM11.7917 18.7292V17.0833H22V18.7292H11.7917ZM11.7917 15.0208V13.375H22V15.0208H11.7917Z" fill="#0064AF"/>
<rect x="1" y="0.5" width="37" height="37" rx="18.5" stroke="#0064AF"/>
</svg>
