<svg width="55" height="54" viewBox="0 0 55 54" fill="none" xmlns="http://www.w3.org/2000/svg">
<g filter="url(#filter0_d_910_37552)">
<rect x="8.5" y="6" width="38" height="38" rx="19" fill="#C73F00" shape-rendering="crispEdges"/>
<path d="M27.5 29.3542C27.7361 29.3542 27.9375 29.2674 28.1042 29.0938C28.2708 28.9201 28.3542 28.7153 28.3542 28.4792C28.3542 28.2569 28.2708 28.059 28.1042 27.8854C27.9375 27.7118 27.7361 27.625 27.5 27.625C27.2639 27.625 27.0625 27.7118 26.8958 27.8854C26.7292 28.059 26.6458 28.2569 26.6458 28.4792C26.6458 28.7153 26.7292 28.9201 26.8958 29.0938C27.0625 29.2674 27.2639 29.3542 27.5 29.3542ZM26.8125 26.3958H28.1875V20.5H26.8125V26.3958ZM24.25 32.7917L19.7083 28.25V21.75L24.25 17.1875H30.75L35.3125 21.75V28.25L30.75 32.7917H24.25ZM24.9375 31.1458H30.0625L33.6458 27.5625V22.4375L30.0625 18.8542H24.9375L21.3542 22.4375V27.5625L24.9375 31.1458Z" fill="white"/>
</g>
<defs>
<filter id="filter0_d_910_37552" x="0.5" y="0" width="54" height="54" filterUnits="userSpaceOnUse" color-interpolation-filters="sRGB">
<feFlood flood-opacity="0" result="BackgroundImageFix"/>
<feColorMatrix in="SourceAlpha" type="matrix" values="0 0 0 0 0 0 0 0 0 0 0 0 0 0 0 0 0 0 127 0" result="hardAlpha"/>
<feOffset dy="2"/>
<feGaussianBlur stdDeviation="4"/>
<feComposite in2="hardAlpha" operator="out"/>
<feColorMatrix type="matrix" values="0 0 0 0 0 0 0 0 0 0 0 0 0 0 0 0 0 0 0.1 0"/>
<feBlend mode="normal" in2="BackgroundImageFix" result="effect1_dropShadow_910_37552"/>
<feBlend mode="normal" in="SourceGraphic" in2="effect1_dropShadow_910_37552" result="shape"/>
</filter>
</defs>
</svg>
