<svg width="12" height="12" viewBox="0 0 12 12" fill="none" xmlns="http://www.w3.org/2000/svg">
<path d="M6 7.54167L2.10417 11.4375C1.89583 11.6458 1.63889 11.75 1.33333 11.75C1.02778 11.75 0.770833 11.6458 0.5625 11.4375C0.354167 11.2292 0.25 10.9722 0.25 10.6667C0.25 10.3611 0.354167 10.1042 0.5625 9.89583L4.45833 6L0.5625 2.10417C0.354167 1.89583 0.25 1.63889 0.25 1.33333C0.25 1.02778 0.354167 0.770833 0.5625 0.5625C0.770833 0.354167 1.02778 0.25 1.33333 0.25C1.63889 0.25 1.89583 0.354167 2.10417 0.5625L6 4.45833L9.89583 0.5625C10.1042 0.354167 10.3611 0.25 10.6667 0.25C10.9722 0.25 11.2292 0.354167 11.4375 0.5625C11.6458 0.770833 11.75 1.02778 11.75 1.33333C11.75 1.63889 11.6458 1.89583 11.4375 2.10417L7.54167 6L11.4375 9.89583C11.6458 10.1042 11.75 10.3611 11.75 10.6667C11.75 10.9722 11.6458 11.2292 11.4375 11.4375C11.2292 11.6458 10.9722 11.75 10.6667 11.75C10.3611 11.75 10.1042 11.6458 9.89583 11.4375L6 7.54167Z" fill="#242222"/>
</svg>
