<svg width="20" height="20" viewBox="0 0 20 20" fill="none" xmlns="http://www.w3.org/2000/svg">
<path d="M5.33333 17.792C4.875 17.792 4.48611 17.6323 4.16667 17.3128C3.84722 16.9934 3.6875 16.6045 3.6875 16.1462V4.47949H2.625V2.81283H7.04167V1.97949H12.9375V2.81283H17.375V4.47949H16.3125V16.1462C16.3125 16.5906 16.1493 16.976 15.8229 17.3024C15.4965 17.6288 15.1111 17.792 14.6667 17.792H5.33333ZM14.6667 4.47949H5.33333V16.1462H14.6667V4.47949ZM7.5 14.4378H8.9375V6.12533H7.5V14.4378ZM11.0625 14.4378H12.5208V6.12533H11.0625V14.4378ZM5.33333 4.47949V16.1462V4.47949Z" fill="#C73F00"/>
</svg>
