<svg width="24" height="24" viewBox="0 0 24 24" fill="none" xmlns="http://www.w3.org/2000/svg">
<path fill-rule="evenodd" clip-rule="evenodd" d="M3.23752 20.7625C3.62919 21.1542 4.09169 21.35 4.62502 21.35H19.375C19.925 21.35 20.3959 21.1542 20.7875 20.7625C21.1792 20.3708 21.375 19.9083 21.375 19.375V4.625C21.375 4.075 21.1792 3.60417 20.7875 3.2125C20.3959 2.82083 19.925 2.625 19.375 2.625H4.62502C4.09169 2.625 3.62919 2.82083 3.23752 3.2125C2.84586 3.60417 2.65002 4.075 2.65002 4.625V19.375C2.65002 19.9083 2.84586 20.3708 3.23752 20.7625ZM19.375 19.375H4.62502V4.625H19.375V19.375ZM11.9615 10.7912L10.456 8H8.56044L10.8901 11.967L8.5 16H10.4121L11.9615 13.1538L13.511 16H15.4121L13.0275 11.967L15.3516 8H13.467L11.9615 10.7912Z" fill="#207A43"/>
</svg>
