<svg width="33" height="32" viewBox="0 0 33 32" fill="none" xmlns="http://www.w3.org/2000/svg">
<rect x="0.5" width="32" height="32" rx="16" fill="#0064AF"/>
<path d="M22 9H11C10.6022 9 10.2206 9.15804 9.93934 9.43934C9.65804 9.72064 9.5 10.1022 9.5 10.5V21.5C9.5 21.8978 9.65804 22.2794 9.93934 22.5607C10.2206 22.842 10.6022 23 11 23H15.2891V18.2403H13.3203V16H15.2891V14.2925C15.2891 12.3503 16.4453 11.2775 18.2163 11.2775C19.0644 11.2775 19.9513 11.4288 19.9513 11.4288V13.335H18.9741C18.0113 13.335 17.7109 13.9325 17.7109 14.5453V16H19.8603L19.5166 18.2403H17.7109V23H22C22.3978 23 22.7794 22.842 23.0607 22.5607C23.342 22.2794 23.5 21.8978 23.5 21.5V10.5C23.5 10.1022 23.342 9.72064 23.0607 9.43934C22.7794 9.15804 22.3978 9 22 9Z" fill="white"/>
</svg>
