<svg width="33" height="32" viewBox="0 0 33 32" fill="none" xmlns="http://www.w3.org/2000/svg">
<rect x="0.5" width="32" height="32" rx="16" fill="#0064AF"/>
<g clip-path="url(#clip0_1186_14396)">
<path d="M22 9H11C10.1719 9 9.5 9.67188 9.5 10.5V21.5C9.5 22.3281 10.1719 23 11 23H22C22.8281 23 23.5 22.3281 23.5 21.5V10.5C23.5 9.67188 22.8281 9 22 9ZM14.0156 17.9688C12.9188 17.9688 12.0312 17.0813 12.0312 15.9844C12.0312 14.8875 12.9188 14 14.0156 14C15.1125 14 16 14.8875 16 15.9844C16 17.0813 15.1125 17.9688 14.0156 17.9688ZM18.9844 17.9688C17.8875 17.9688 17 17.0813 17 15.9844C17 14.8875 17.8875 14 18.9844 14C20.0813 14 20.9688 14.8875 20.9688 15.9844C20.9688 17.0813 20.0813 17.9688 18.9844 17.9688Z" fill="white"/>
</g>
<defs>
<clipPath id="clip0_1186_14396">
<rect width="14" height="16" fill="white" transform="translate(9.5 8)"/>
</clipPath>
</defs>
</svg>
