<?xml version="1.0" encoding="UTF-8"?>
<svg xmlns="http://www.w3.org/2000/svg" xmlns:xlink="http://www.w3.org/1999/xlink" width="24px" height="24px" viewBox="0 0 24 24" version="1.1">
<g id="surface1">
<path style=" stroke:none;fill-rule:nonzero;fill:rgb(81.568627%,60%,29.411765%);fill-opacity:1;" d="M 20.25 3.375 L 9.75 3.375 C 9.75 3.375 8.328125 1.125 7.5 1.125 L 3.75 1.125 C 2.921875 1.125 2.25 1.796875 2.25 2.625 L 2.25 19.875 C 2.25 20.703125 2.921875 21.375 3.75 21.375 L 20.25 21.375 C 21.078125 21.375 21.75 20.703125 21.75 19.875 L 21.75 4.875 C 21.75 4.046875 21.078125 3.375 20.25 3.375 Z M 20.25 3.375 "/>
<path style=" stroke:none;fill-rule:nonzero;fill:rgb(89.411765%,90.588235%,90.588235%);fill-opacity:1;" d="M 2.25 5.625 L 21.75 5.625 L 21.75 11.625 L 2.25 11.625 Z M 2.25 5.625 "/>
<path style=" stroke:none;fill-rule:nonzero;fill:rgb(95.686275%,70.588235%,34.901961%);fill-opacity:1;" d="M 1.5 7.125 L 22.5 7.125 C 23.328125 7.125 24 7.796875 24 8.625 L 22.5 21.375 C 22.5 22.203125 21.828125 22.875 21 22.875 L 3 22.875 C 2.171875 22.875 1.5 22.203125 1.5 21.375 L 0 8.625 C 0 7.796875 0.671875 7.125 1.5 7.125 Z M 1.5 7.125 "/>
</g>
</svg>
