<svg width="24" height="24" viewBox="0 0 24 24" fill="none" xmlns="http://www.w3.org/2000/svg">
<path d="M4.62502 21.35C4.09169 21.35 3.62919 21.1542 3.23752 20.7625C2.84586 20.3708 2.65002 19.9083 2.65002 19.375V4.625C2.65002 4.075 2.84586 3.60417 3.23752 3.2125C3.62919 2.82083 4.09169 2.625 4.62502 2.625H19.375C19.925 2.625 20.3959 2.82083 20.7875 3.2125C21.1792 3.60417 21.375 4.075 21.375 4.625V19.375C21.375 19.9083 21.1792 20.3708 20.7875 20.7625C20.3959 21.1542 19.925 21.35 19.375 21.35H4.62502ZM4.62502 19.375H19.375V4.625H4.62502V19.375ZM5.72502 17.2H18.3L14.45 11.975L11.15 16.25L8.82502 13.075L5.72502 17.2ZM4.62502 19.375V4.625V19.375Z" fill="#00B0CC"/>
</svg>
