<svg width="33" height="32" viewBox="0 0 33 32" fill="none" xmlns="http://www.w3.org/2000/svg">
<rect x="0.5" width="32" height="32" rx="16" fill="#0064AF"/>
<g clip-path="url(#clip0_1186_14390)">
<path d="M16.503 12.4063C14.5155 12.4063 12.9124 14.0094 12.9124 15.9969C12.9124 17.9844 14.5155 19.5875 16.503 19.5875C18.4905 19.5875 20.0937 17.9844 20.0937 15.9969C20.0937 14.0094 18.4905 12.4063 16.503 12.4063ZM16.503 18.3313C15.2187 18.3313 14.1687 17.2844 14.1687 15.9969C14.1687 14.7094 15.2155 13.6625 16.503 13.6625C17.7905 13.6625 18.8374 14.7094 18.8374 15.9969C18.8374 17.2844 17.7874 18.3313 16.503 18.3313ZM21.078 12.2594C21.078 12.725 20.703 13.0969 20.2405 13.0969C19.7749 13.0969 19.403 12.7219 19.403 12.2594C19.403 11.7969 19.778 11.4219 20.2405 11.4219C20.703 11.4219 21.078 11.7969 21.078 12.2594ZM23.4562 13.1094C23.403 11.9875 23.1468 10.9938 22.3249 10.175C21.5062 9.35626 20.5124 9.10001 19.3905 9.04376C18.2343 8.97813 14.7687 8.97813 13.6124 9.04376C12.4937 9.09688 11.4999 9.35313 10.678 10.1719C9.85615 10.9906 9.60303 11.9844 9.54678 13.1063C9.48115 14.2625 9.48115 17.7281 9.54678 18.8844C9.5999 20.0063 9.85615 21 10.678 21.8188C11.4999 22.6375 12.4905 22.8938 13.6124 22.95C14.7687 23.0156 18.2343 23.0156 19.3905 22.95C20.5124 22.8969 21.5062 22.6406 22.3249 21.8188C23.1437 21 23.3999 20.0063 23.4562 18.8844C23.5218 17.7281 23.5218 14.2656 23.4562 13.1094ZM21.9624 20.125C21.7187 20.7375 21.2468 21.2094 20.6312 21.4563C19.7093 21.8219 17.5218 21.7375 16.503 21.7375C15.4843 21.7375 13.2937 21.8188 12.3749 21.4563C11.7624 21.2125 11.2905 20.7406 11.0437 20.125C10.678 19.2031 10.7624 17.0156 10.7624 15.9969C10.7624 14.9781 10.6812 12.7875 11.0437 11.8688C11.2874 11.2563 11.7593 10.7844 12.3749 10.5375C13.2968 10.1719 15.4843 10.2563 16.503 10.2563C17.5218 10.2563 19.7124 10.175 20.6312 10.5375C21.2437 10.7813 21.7155 11.2531 21.9624 11.8688C22.328 12.7906 22.2437 14.9781 22.2437 15.9969C22.2437 17.0156 22.328 19.2063 21.9624 20.125Z" fill="white"/>
</g>
<defs>
<clipPath id="clip0_1186_14390">
<rect width="14" height="16" fill="white" transform="translate(9.5 8)"/>
</clipPath>
</defs>
</svg>
