<svg width="33" height="32" viewBox="0 0 33 32" fill="none" xmlns="http://www.w3.org/2000/svg">
<rect x="0.5" width="32" height="32" rx="16" fill="#0064AF"/>
<g clip-path="url(#clip0_1186_14393)">
<path d="M22.5 9H10.4969C9.94687 9 9.5 9.45313 9.5 10.0094V21.9906C9.5 22.5469 9.94687 23 10.4969 23H22.5C23.05 23 23.5 22.5469 23.5 21.9906V10.0094C23.5 9.45313 23.05 9 22.5 9ZM13.7312 21H11.6562V14.3187H13.7344V21H13.7312ZM12.6937 13.4062C12.0281 13.4062 11.4906 12.8656 11.4906 12.2031C11.4906 11.5406 12.0281 11 12.6937 11C13.3562 11 13.8969 11.5406 13.8969 12.2031C13.8969 12.8688 13.3594 13.4062 12.6937 13.4062ZM21.5094 21H19.4344V17.75C19.4344 16.975 19.4187 15.9781 18.3562 15.9781C17.275 15.9781 17.1094 16.8219 17.1094 17.6938V21H15.0344V14.3187H17.025V15.2312H17.0531C17.3312 14.7062 18.0094 14.1531 19.0188 14.1531C21.1187 14.1531 21.5094 15.5375 21.5094 17.3375V21Z" fill="white"/>
</g>
<defs>
<clipPath id="clip0_1186_14393">
<rect width="14" height="16" fill="white" transform="translate(9.5 8)"/>
</clipPath>
</defs>
</svg>
