<svg width="20" height="20" viewBox="0 0 20 20" fill="none" xmlns="http://www.w3.org/2000/svg">
  <path fill-rule="evenodd" clip-rule="evenodd" d="M1.14747 18.7625C1.53914 19.1542 2.00164 19.35 2.53497 19.35H17.285C17.835 19.35 18.3058 19.1542 18.6975 18.7625C19.0891 18.3708 19.285 17.9083 19.285 17.375V2.625C19.285 2.075 19.0891 1.60417 18.6975 1.2125C18.3058 0.820833 17.835 0.625 17.285 0.625H2.53497C2.00164 0.625 1.53914 0.820833 1.14747 1.2125C0.755806 1.60417 0.559973 2.075 0.559973 2.625V17.375C0.559973 17.9083 0.755806 18.3708 1.14747 18.7625ZM17.285 17.375H2.53497V2.625H11.5975V8.3125H17.285V17.375Z" fill="#333333"/>
</svg>
