<svg width="18" height="18" viewBox="0 0 18 18" fill="none" xmlns="http://www.w3.org/2000/svg">
<path d="M9 17.6253C7.81945 17.6253 6.70486 17.3996 5.65625 16.9482C4.60764 16.4969 3.69097 15.8788 2.90625 15.0941C2.12153 14.3094 1.50347 13.3927 1.05208 12.3441C0.600695 11.2955 0.375 10.1809 0.375 9.00033C0.375 7.7781 0.604167 6.64269 1.0625 5.59408C1.52083 4.54546 2.14931 3.63227 2.94792 2.85449C3.74653 2.07671 4.67708 1.4656 5.73958 1.02116C6.80208 0.576714 7.94445 0.354492 9.16667 0.354492C10.3056 0.354492 11.3854 0.548937 12.4063 0.937826C13.4271 1.32671 14.3264 1.86144 15.1042 2.54199C15.8819 3.22255 16.5 4.0281 16.9583 4.95866C17.4167 5.88921 17.6458 6.9031 17.6458 8.00033C17.6458 9.54199 17.2049 10.7885 16.3229 11.7399C15.441 12.6913 14.2361 13.167 12.7083 13.167H11.3542C11.1181 13.167 10.9132 13.2607 10.7396 13.4482C10.566 13.6357 10.4792 13.8406 10.4792 14.0628C10.4792 14.4239 10.5625 14.7017 10.7292 14.8962C10.8958 15.0906 10.9792 15.3475 10.9792 15.667C10.9792 16.2364 10.7986 16.7052 10.4375 17.0732C10.0764 17.4413 9.59722 17.6253 9 17.6253ZM4.25 9.54199C4.52778 9.54199 4.77083 9.43783 4.97917 9.22949C5.1875 9.02116 5.29167 8.7781 5.29167 8.50033C5.29167 8.22255 5.1875 7.97949 4.97917 7.77116C4.77083 7.56283 4.52778 7.45866 4.25 7.45866C3.97222 7.45866 3.72917 7.56283 3.52083 7.77116C3.3125 7.97949 3.20833 8.22255 3.20833 8.50033C3.20833 8.7781 3.3125 9.02116 3.52083 9.22949C3.72917 9.43783 3.97222 9.54199 4.25 9.54199ZM6.83333 6.08366C7.11111 6.08366 7.35417 5.97949 7.5625 5.77116C7.77083 5.56283 7.875 5.31977 7.875 5.04199C7.875 4.75033 7.77083 4.5038 7.5625 4.30241C7.35417 4.10102 7.11111 4.00033 6.83333 4.00033C6.54167 4.00033 6.29514 4.10102 6.09375 4.30241C5.89236 4.5038 5.79167 4.75033 5.79167 5.04199C5.79167 5.31977 5.89236 5.56283 6.09375 5.77116C6.29514 5.97949 6.54167 6.08366 6.83333 6.08366ZM11.1667 6.08366C11.4583 6.08366 11.7083 5.97949 11.9167 5.77116C12.125 5.56283 12.2292 5.31977 12.2292 5.04199C12.2292 4.75033 12.125 4.5038 11.9167 4.30241C11.7083 4.10102 11.4653 4.00033 11.1875 4.00033C10.8958 4.00033 10.6493 4.10102 10.4479 4.30241C10.2465 4.5038 10.1458 4.75033 10.1458 5.04199C10.1458 5.31977 10.2465 5.56283 10.4479 5.77116C10.6493 5.97949 10.8889 6.08366 11.1667 6.08366ZM13.8333 9.54199C14.1111 9.54199 14.3542 9.43783 14.5625 9.22949C14.7708 9.02116 14.875 8.7781 14.875 8.50033C14.875 8.22255 14.7708 7.97949 14.5625 7.77116C14.3542 7.56283 14.1111 7.45866 13.8333 7.45866C13.5417 7.45866 13.2951 7.56283 13.0938 7.77116C12.8924 7.97949 12.7917 8.22255 12.7917 8.50033C12.7917 8.7781 12.8924 9.02116 13.0938 9.22949C13.2951 9.43783 13.5417 9.54199 13.8333 9.54199ZM8.95833 15.9795C9.08333 15.9795 9.17361 15.9517 9.22917 15.8962C9.28472 15.8406 9.3125 15.7503 9.3125 15.6253C9.3125 15.4309 9.21181 15.2607 9.01042 15.1149C8.80903 14.9691 8.70833 14.6184 8.70833 14.0628C8.70833 13.3962 8.92708 12.8059 9.36458 12.292C9.80208 11.7781 10.3542 11.5212 11.0208 11.5212H12.7083C13.75 11.5212 14.5556 11.2121 15.125 10.5941C15.6944 9.97602 15.9792 9.13227 15.9792 8.06283C15.9792 6.22949 15.2917 4.76421 13.9167 3.66699C12.5417 2.56977 10.9583 2.02116 9.16667 2.02116C7.18056 2.02116 5.49306 2.69824 4.10417 4.05241C2.71528 5.40658 2.02083 7.05588 2.02083 9.00033C2.02083 10.9309 2.69792 12.5767 4.05208 13.9378C5.40625 15.2989 7.04167 15.9795 8.95833 15.9795Z" fill="#0064AF"/>
</svg>
