<svg width="24" height="24" viewBox="0 0 24 24" fill="none" xmlns="http://www.w3.org/2000/svg">
<path d="M6.55981 14.8613H7.53726V12.6687H8.8053C9.08709 12.6687 9.32044 12.5762 9.50536 12.3913C9.69029 12.2063 9.78275 11.973 9.78275 11.6912V10.4232C9.78275 10.159 9.69029 9.93004 9.50536 9.73631C9.32044 9.54258 9.08709 9.44572 8.8053 9.44572H6.55981V14.8613ZM7.53726 11.6912V10.4232H8.8053V11.6912H7.53726ZM10.8394 14.8613H13.0585C13.3227 14.8613 13.5516 14.7688 13.7454 14.5839C13.9391 14.399 14.036 14.1656 14.036 13.8839V10.4232C14.036 10.159 13.9391 9.93004 13.7454 9.73631C13.5516 9.54258 13.3227 9.44572 13.0585 9.44572H10.8394V14.8613ZM11.8169 13.8839V10.4232H13.0585V13.8839H11.8169ZM15.2776 14.8613H16.255V12.6687H17.5759V11.6912H16.255V10.4232H17.5759V9.44572H15.2776V14.8613ZM4.76342 21.36C4.18224 21.36 3.68471 21.1531 3.27084 20.7392C2.85696 20.3253 2.65002 19.8278 2.65002 19.2466V4.71699C2.65002 4.15341 2.85696 3.66469 3.27084 3.25082C3.68471 2.83694 4.18224 2.63 4.76342 2.63H19.293C19.8566 2.63 20.3453 2.83694 20.7592 3.25082C21.1731 3.66469 21.38 4.15341 21.38 4.71699V19.2466C21.38 19.8278 21.1731 20.3253 20.7592 20.7392C20.3453 21.1531 19.8566 21.36 19.293 21.36H4.76342ZM4.76342 19.2466H19.293V4.71699H4.76342V19.2466Z" fill="#E50083"/>
</svg>
