<svg width="20" height="20" viewBox="0 0 20 20" fill="none" xmlns="http://www.w3.org/2000/svg">
  <path d="M5.19005 8.26317H4.06473V7.28572L7.28766 7.29V8.26317H6.17093V12.7H5.19005V8.26317Z" fill="#C73F00"/>
  <path d="M9.32181 12.7L8.34436 12.7013L9.34436 9.99351L8.34436 7.28572L9.32181 7.29L10.0191 9.17624L10.718 7.28573L11.6955 7.29001L10.6955 9.99222L11.6955 12.7L10.718 12.6957L10.0207 10.8095L9.32181 12.7Z" fill="#C73F00"/>
  <path d="M13.8754 8.26746H12.75V7.29001L15.973 7.29429V8.26746H14.8562V12.7043H13.8754V8.26746Z" fill="#C73F00"/>
  <path fill-rule="evenodd" clip-rule="evenodd" d="M1.27084 18.7392C1.68471 19.1531 2.18224 19.36 2.76342 19.36H17.293C17.8566 19.36 18.3453 19.1531 18.7592 18.7392C19.1731 18.3253 19.38 17.8278 19.38 17.2466V2.71699C19.38 2.15341 19.1731 1.66469 18.7592 1.25082C18.3453 0.836942 17.8566 0.630005 17.293 0.630005H2.76342C2.18224 0.630005 1.68471 0.836942 1.27084 1.25082C0.856961 1.66469 0.650024 2.15341 0.650024 2.71699V17.2466C0.650024 17.8278 0.856961 18.3253 1.27084 18.7392ZM17.293 17.2466H2.76342V2.71699H17.293V17.2466Z" fill="#C73F00"/>
</svg>
