<svg width="24" height="24" viewBox="0 0 24 24" fill="none" xmlns="http://www.w3.org/2000/svg">
<path fill-rule="evenodd" clip-rule="evenodd" d="M10.6484 13.1484H12.1154C12.7418 13.1484 13.2784 13.0458 13.7253 12.8407C14.1758 12.6355 14.5201 12.3443 14.7582 11.967C14.9963 11.5897 15.1154 11.1429 15.1154 10.6264C15.1154 10.1172 14.9963 9.66483 14.7582 9.26923C14.5201 8.87363 14.1758 8.5641 13.7253 8.34066C13.2784 8.11355 12.7418 8 12.1154 8H9V16H10.6484V13.1484ZM10.6484 11.8626V9.29121H12.1154C12.4304 9.29121 12.6868 9.35348 12.8846 9.47802C13.0824 9.60256 13.2271 9.7674 13.3187 9.97253C13.4103 10.1777 13.456 10.3993 13.456 10.6374C13.456 10.8718 13.4103 11.0824 13.3187 11.2692C13.2271 11.456 13.0824 11.6026 12.8846 11.7088C12.6868 11.8114 12.4304 11.8626 12.1154 11.8626H10.6484Z" fill="#910AA3"/>
<path fill-rule="evenodd" clip-rule="evenodd" d="M3.23752 20.7625C3.62919 21.1542 4.09169 21.35 4.62502 21.35H19.375C19.925 21.35 20.3959 21.1542 20.7875 20.7625C21.1792 20.3708 21.375 19.9083 21.375 19.375V4.625C21.375 4.075 21.1792 3.60417 20.7875 3.2125C20.3959 2.82083 19.925 2.625 19.375 2.625H4.62502C4.09169 2.625 3.62919 2.82083 3.23752 3.2125C2.84586 3.60417 2.65002 4.075 2.65002 4.625V19.375C2.65002 19.9083 2.84586 20.3708 3.23752 20.7625ZM19.375 19.375H4.62502V4.625H19.375V19.375Z" fill="#910AA3"/>
</svg>
