<svg width="33" height="32" viewBox="0 0 33 32" fill="none" xmlns="http://www.w3.org/2000/svg">
<rect x="0.5" width="32" height="32" rx="16" fill="#0064AF"/>
<path d="M22.8553 12.7411C22.8655 12.8833 22.8655 13.0254 22.8655 13.1675C22.8655 17.5025 19.566 22.4975 13.5355 22.4975C11.6777 22.4975 9.95178 21.9594 8.5 21.0254C8.76397 21.0558 9.01775 21.066 9.29187 21.066C10.8248 21.066 12.236 20.5483 13.3629 19.665C11.9213 19.6345 10.7132 18.6904 10.2969 17.3909C10.5 17.4213 10.703 17.4416 10.9162 17.4416C11.2107 17.4416 11.5051 17.401 11.7792 17.33C10.2767 17.0254 9.14972 15.7056 9.14972 14.1117V14.0711C9.58625 14.3148 10.0939 14.467 10.6319 14.4873C9.74869 13.8985 9.17003 12.8934 9.17003 11.7563C9.17003 11.1472 9.33244 10.5888 9.61672 10.1015C11.2309 12.0914 13.6573 13.3908 16.3781 13.533C16.3274 13.2893 16.2969 13.0356 16.2969 12.7818C16.2969 10.9746 17.7588 9.50256 19.5761 9.50256C20.5202 9.50256 21.373 9.8985 21.972 10.5381C22.7131 10.396 23.4238 10.1218 24.0532 9.74622C23.8096 10.5077 23.2918 11.1473 22.6116 11.5533C23.2715 11.4823 23.9111 11.2995 24.4999 11.0457C24.0533 11.6954 23.4949 12.2741 22.8553 12.7411Z" fill="white"/>
</svg>
