<svg width="24" height="24" viewBox="0 0 24 24" fill="none" xmlns="http://www.w3.org/2000/svg">
<path d="M9.07471 16L7.29999 8H8.93186L10.0241 13.5751L11.3439 8H12.7341L14.0576 13.5752L15.1406 8H16.7725L15.0033 16H13.3384L12.0353 10.7498L10.7395 16H9.07471Z" fill="#009AE0"/>
<path fill-rule="evenodd" clip-rule="evenodd" d="M3.23752 20.7625C3.62919 21.1542 4.09169 21.35 4.62502 21.35H19.375C19.925 21.35 20.3959 21.1542 20.7875 20.7625C21.1792 20.3708 21.375 19.9083 21.375 19.375V4.625C21.375 4.075 21.1792 3.60417 20.7875 3.2125C20.3959 2.82083 19.925 2.625 19.375 2.625H4.62502C4.09169 2.625 3.62919 2.82083 3.23752 3.2125C2.84586 3.60417 2.65002 4.075 2.65002 4.625V19.375C2.65002 19.9083 2.84586 20.3708 3.23752 20.7625ZM19.375 19.375H4.62502V4.625H19.375V19.375Z" fill="#009AE0"/>
</svg>
