<svg width="33" height="32" viewBox="0 0 33 32" fill="none" xmlns="http://www.w3.org/2000/svg">
<rect x="0.5" width="32" height="32" rx="16" fill="#0064AF"/>
<path d="M24.6766 11.8776C24.4803 11.1385 23.902 10.5565 23.1677 10.3589C21.8368 10 16.4999 10 16.4999 10C16.4999 10 11.163 10 9.83205 10.3589C9.09777 10.5565 8.51946 11.1385 8.32318 11.8776C7.96655 13.2172 7.96655 16.0121 7.96655 16.0121C7.96655 16.0121 7.96655 18.8071 8.32318 20.1467C8.51946 20.8857 9.09777 21.4435 9.83205 21.6411C11.163 22 16.4999 22 16.4999 22C16.4999 22 21.8368 22 23.1677 21.6411C23.902 21.4435 24.4803 20.8857 24.6766 20.1467C25.0332 18.8071 25.0332 16.0121 25.0332 16.0121C25.0332 16.0121 25.0332 13.2172 24.6766 11.8776ZM14.7544 18.5497V13.4745L19.215 16.0122L14.7544 18.5497Z" fill="white"/>
</svg>
